<svg xmlns="http://www.w3.org/2000/svg" width="482.2" height="312"><path fill="#30456B" d="M40.7 249.4s4.3 4.9 9.9 4.9c2.6 0 4.5-1 4.5-3.3 0-4.7-17.6-4.6-17.6-15.4 0-6.7 6-9.7 13-9.7 4.5 0 11.7 1.5 11.7 6.9v3.5h-7.3v-1.6c0-1.6-2.4-2.4-4.2-2.4-2.9 0-5 1-5 3 0 5.2 17.7 4.2 17.7 15.3 0 6.3-5.6 10.2-12.8 10.2-9.2 0-13.9-6-13.9-6l4-5.4zM86.1 225.8c4.3 0 12.1 1.8 12.1 7.5v3.9h-7.3v-1.8c0-1.8-2.7-2.6-4.8-2.6-5.8 0-9.9 4.4-9.9 10.4 0 6.8 5 10.3 10.4 10.3 5.7 0 9.9-4.5 9.9-4.5l3.5 5.8s-5 6-14.1 6c-11 0-18.1-7.8-18.1-17.5.1-9.4 6.9-17.5 18.3-17.5zM123 239.1h1v-.3c0-4.8-1.9-6.5-6.1-6.5-1.5 0-4.4.4-4.4 2.2v1.8h-7.7v-3.5c0-6.2 8.8-6.9 12.2-6.9 11.1 0 14.4 5.8 14.4 13.3v12.4c0 .9.5 1.4 1.4 1.4h2.6v7h-7.5c-3.1 0-4.3-1.7-4.3-3.7 0-.9.1-1.4.1-1.4h-.1s-2.6 5.9-10.1 5.9c-6 0-11.4-3.7-11.4-10.4 0-10.5 14.4-11.3 19.9-11.3zm-6.5 15.2c4.4 0 7.6-4.7 7.6-8.8v-.8h-1.4c-4.3 0-11.2.6-11.2 5.2 0 2.3 1.6 4.4 5 4.4zM142.8 222c0-1-.5-1.4-1.4-1.4h-2.6v-7.1h7.9c3.1 0 4.4 1.4 4.4 4.4v33.6c0 .9.5 1.4 1.4 1.4h2.6v7h-7.9c-3.1 0-4.4-1.3-4.4-4.4V222zM175.7 225.8c9.6 0 14.8 7 14.8 15.8 0 1-.2 3.1-.2 3.1h-23c.7 5.9 5 9 10 9 5.4 0 9.4-3.7 9.4-3.7l3.5 5.8s-5.1 5-13.4 5c-11.1 0-17.9-8-17.9-17.5-.2-10.3 6.8-17.5 16.8-17.5zM182 239c-.1-4-2.9-6.7-6.3-6.7-4.3 0-7.3 2.6-8.2 6.7H182z"/><path fill="#F16362" d="M198.7 233.2h-4.3v-6.6h4.5v-9.1h8.1v9.1h7.6v6.6H207v13.5c0 5.5 4.3 6.3 6.6 6.3.9 0 1.5-.1 1.5-.1v7.3s-1 .2-2.6.2c-4.6 0-13.9-1.4-13.9-12.6v-14.6zM222.1 222c0-1-.5-1.4-1.4-1.4H218v-7.1h7.9c3.1 0 4.4 1.4 4.4 4.4v11.7c0 1.6-.1 2.8-.1 2.8h.1c1.6-3.2 5.7-6.6 11.4-6.6 7.5 0 11.6 3.9 11.6 12.7v13c0 .9.5 1.4 1.4 1.4h2.6v7h-7.9c-3.1 0-4.4-1.3-4.4-4.4v-15.3c0-4.1-1.1-6.8-5.3-6.8-4.4 0-7.8 2.9-9 6.9-.4 1.3-.5 2.7-.5 4.3V260h-8.3v-38zM280.8 239.1h1v-.3c0-4.8-1.9-6.5-6.1-6.5-1.5 0-4.4.4-4.4 2.2v1.8h-7.7v-3.5c0-6.2 8.8-6.9 12.2-6.9 11.1 0 14.4 5.8 14.4 13.3v12.4c0 .9.5 1.4 1.4 1.4h2.6v7h-7.5c-3.1 0-4.3-1.7-4.3-3.7 0-.9.1-1.4.1-1.4h-.1s-2.6 5.9-10.1 5.9c-6 0-11.4-3.7-11.4-10.4 0-10.5 14.4-11.3 19.9-11.3zm-6.5 15.2c4.4 0 7.6-4.7 7.6-8.8v-.8h-1.4c-4.3 0-11.2.6-11.2 5.2 0 2.3 1.6 4.4 5 4.4zM301 233.2h-4.3v-6.6h4.5v-9.1h8.1v9.1h7.6v6.6h-7.6v13.5c0 5.5 4.3 6.3 6.6 6.3.9 0 1.5-.1 1.5-.1v7.3s-1 .2-2.6.2c-4.6 0-13.9-1.4-13.9-12.6v-14.6z"/><path fill="#30456B" d="M325.2 249.4s4.3 4.9 9.9 4.9c2.6 0 4.5-1 4.5-3.3 0-4.7-17.6-4.6-17.6-15.4 0-6.7 6-9.7 13-9.7 4.5 0 11.7 1.5 11.7 6.9v3.5h-7.3v-1.6c0-1.6-2.4-2.4-4.2-2.4-2.9 0-5 1-5 3 0 5.2 17.7 4.2 17.7 15.3 0 6.3-5.6 10.2-12.8 10.2-9.2 0-13.9-6-13.9-6l4-5.4zM353.6 234.9c-.3-.9-.9-1.2-1.8-1.2h-.8v-7.1h4.8c2.7 0 4.1.9 4.9 3.1l6.3 17.5c.7 2 1.2 4.8 1.2 4.8h.1s.5-2.8 1.2-4.8l6.3-17.5c.9-2.3 2.2-3.1 4.9-3.1h4.4v7.1h-.8c-.9 0-1.5.3-1.8 1.2L373 260h-9.9l-9.5-25.1zM402.1 225.8c7.7 0 10.3 4.7 10.3 4.7h.1v-.9c0-1.5 1-3.1 3.7-3.1h7.7v7.1h-2.6c-.8 0-1.4.5-1.4 1.3v23c0 11.4-8.9 15.8-17.6 15.8-4.2 0-8.6-1.2-11.8-2.9l2.6-6.5s4.1 2.2 9.2 2.2c5 0 9.4-2.2 9.4-8.2v-1.6c0-.8.1-1.8.1-1.8h-.1c-2 2.8-4.8 4.3-9.3 4.3-9.6 0-15-7.7-15-16.9s5.1-16.5 14.7-16.5zm9.8 16.7c0-7.6-3.8-9.6-8.3-9.6-5 0-7.8 3.7-7.8 9.3 0 5.8 2.9 10.1 8.3 10.1 4 0 7.8-2.3 7.8-9.8zM431.8 213.5h8.6l-.7 33h-7.3l-.6-33zm.3 38.8h8v7.7h-8v-7.7z"/><g><path fill="#F4BABA" d="M188.3 61.2h105.5v105.5H188.3V61.2z"/><path fill="#F16362" stroke="#30456B" stroke-width="7" stroke-linecap="round" stroke-linejoin="round" d="M188.3 128H227v38.7h-38.7V128z"/><path fill="none" stroke="#2E4369" stroke-width="3.518" stroke-linecap="round" stroke-linejoin="round" d="M188.3 128H227v38.7h-38.7V128z"/><path fill="none" stroke="#30456B" stroke-width="7" stroke-linecap="round" stroke-linejoin="round" d="M188.3 106.9V61.2h105.5v105.5h-45.7m-10.5-49.2l38.7-38.7"/><path fill="none" stroke="#30456B" stroke-width="7" stroke-linecap="round" stroke-linejoin="round" d="M248.1 78.8h28.1v28.1"/></g></svg>