<svg id="c08db49a-d184-41a6-8d84-eafb852e2953" data-name="Layer 1" xmlns="http://www.w3.org/2000/svg" viewBox="0 0 32 32"><title>social</title><path id="58ba4f06-f6d9-4b3f-99c5-75bf28691f91" data-name="layer2" fill="#78d1f4" d="M31 24A7 7 0 0 1 24 31A7 7 0 0 1 17 24A7 7 0 0 1 31 24z"/><path id="be7db1e5-d842-458c-902e-e2d1c4688937" data-name="opacity" d="M25.5 29.5A7 7 0 0 1 19.85 18.35 7 7 0 1 0 29.65 28.15 6.95 6.95 0 0 1 25.5 29.5Z" fill="#000064" opacity="0.15"/><path id="625ff661-3c5e-4701-b329-093137453489" data-name="layer1" d="M17.95 20.5h0c-1.65 -0.5 -1.95 -1.45 -1.95 -2V17.5a7.05 7.05 0 0 0 2 -3.5c1.25 0 2 -1.5 2 -3 0 -0.4 0 -2 -1 -2C21.5 1.75 14.2 -1 9 2.5c-2.2 0 -2.8 3.3 -2 6.5 -1 0 -1 1.6 -1 2 0 1.5 0.75 3 2 3h0a6.8 6.8 0 0 0 2 3.5v1c0 0.8 -0.25 1.8 -4.3 2.6S1 25.5 1 25.5H17.15a6.95 6.95 0 0 1 0.8 -5Z" fill="#a5d0ec"/><path id="5b3a579e-c362-4d63-8626-e5c6f132b760" data-name="opacity" d="M17.15 25.5a6.95 6.95 0 0 1 0.8 -5h0l-0.25 -0.1c-2.25 0.8 -3 2.7 -3.5 5.1h3Z" fill="#000064" opacity="0.15"/><path id="f650736a-4f78-4985-9e78-7abd1d543a3c" data-name="opacity" d="M10 14h0c0.4 1.5 2.05 2.65 3 3.5v1c0 0.8 -0.25 1.8 -4.3 2.6S4 25.5 4 25.5H1s0 -3.5 4.7 -4.4S10 19.3 10 18.5V17.5a6.8 6.8 0 0 1 -2 -3.5h0c-1.25 0 -2 -1.5 -2 -3 0 -0.4 0 -2 1 -2 -0.8 -3.2 -0.2 -6.5 2 -6.5A8.35 8.35 0 0 1 15.25 1.15 8.9 8.9 0 0 0 12 2.5c-2.2 0 -3.8 3.3 -3 6.5C9 9 9 13 10 14Z" fill="#000064" opacity="0.15"/><path id="43c3ff6b-7b3b-41a5-a498-a596a462f5ad" data-name="stroke" d="M17.95 20.5c-1.65 -0.5 -1.95 -1.45 -1.95 -2V17.5a7.05 7.05 0 0 0 2 -3.5h0c1.25 0 2 -1.5 2 -3 0 -0.4 0 -2 -1 -2C21.5 1.75 14.2 -1 9 2.5c-2.2 0 -2.8 3.3 -2 6.5 -1 0 -1 1.6 -1 2 0 1.5 0.75 3 2 3h0a7.1 7.1 0 0 0 2 3.5v1c0 0.8 -0.25 1.8 -4.3 2.6S1 25.5 1 25.5H17.15" fill="none" stroke="#2e4369" stroke-linecap="round" stroke-linejoin="round" stroke-width="1"/><path id="a05eb553-296d-481e-8bdd-43baf8e87734" data-name="stroke" fill="none" stroke="#2e4369" stroke-linecap="round" stroke-linejoin="round" stroke-width="1" d="M31 24A7 7 0 0 1 24 31A7 7 0 0 1 17 24A7 7 0 0 1 31 24z"/><path id="0d4cc556-efc4-4c63-a3cf-9dea104883bc" data-name="stroke" fill="none" stroke="#2e4369" stroke-linecap="round" stroke-linejoin="round" stroke-width="1" d="M21 24L27 24"/><path id="c87275c9-1360-459a-a821-de9c8d8bf728" data-name="stroke" fill="none" stroke="#2e4369" stroke-linecap="round" stroke-linejoin="round" stroke-width="1" d="M24 27L24 21"/></svg>